<svg width="133" height="61" viewBox="0 0 133 61" fill="none" xmlns="http://www.w3.org/2000/svg">
<path d="M1.44141 37V12.3906H4.5V33.9766H14.6602V37H1.44141ZM16.6289 31.7969V23.1133C16.6289 22.0117 17.1211 20.9336 18.1055 19.8789C19.3242 18.6133 20.8477 17.9805 22.6758 17.9805V20.8281C21.293 20.8281 20.332 21.4023 19.793 22.5508C19.6289 22.9023 19.5469 23.2539 19.5469 23.6055V31.3398C19.5469 32.207 19.9453 32.9453 20.7422 33.5547C21.3047 33.9766 21.9492 34.1875 22.6758 34.1875V37.0352C20.4492 37.0352 18.7266 36.1328 17.5078 34.3281C16.9219 33.4375 16.6289 32.5938 16.6289 31.7969ZM24.1875 37.0352V34.1875C25.4297 34.1875 26.3203 33.625 26.8594 32.5C27.0469 32.125 27.1406 31.7617 27.1406 31.4102V23.6055C27.1406 22.6445 26.7305 21.8828 25.9102 21.3203C25.3945 20.9922 24.8086 20.8281 24.1523 20.8281V17.9805C26.3086 17.9805 27.9727 18.8594 29.1445 20.6172C29.7305 21.4844 30.0234 22.3164 30.0234 23.1133V31.7969C30.0234 32.9453 29.5312 34.0586 28.5469 35.1367C27.3984 36.3789 25.9453 37.0117 24.1875 37.0352ZM32.168 22.4102V19.5273H34.4883V17.4883C34.4883 16.1758 34.9219 14.9805 35.7891 13.9023C36.75 12.7773 37.9922 12.2031 39.5156 12.1797H40.8164L40.1484 15.0273H39.4805C38.1445 15.0977 37.4648 15.918 37.4414 17.4883V19.5625L39.832 19.5273V22.4102H37.4414V37H34.4883V22.4102H32.168ZM41.8008 21.0391V18.1914H44.1211V12.1094H47.1094V18.1914H49.3594V21.0742H47.1094V31.1641C47.1094 32.8281 47.7891 33.7539 49.1484 33.9414C49.4062 33.9883 49.6641 34.0117 49.9219 34.0117H50.4141L51.082 37H49.8164C46.9336 36.9766 45.1641 35.8984 44.5078 33.7656C44.2734 32.9688 44.1562 31.9844 44.1562 30.8125L44.1211 21.0391H41.8008ZM52.6641 37V12.3906H55.7227V23.1133H58.8867V26.1016H55.7227V37H52.6641ZM60.6445 26.1016V23.1133H63.7734V12.3906H66.8672V37H63.7734V26.1016H60.6445ZM69.6094 31.7969V23.1133C69.6094 22.0117 70.1016 20.9336 71.0859 19.8789C72.3047 18.6133 73.8281 17.9805 75.6562 17.9805V20.8281C74.2734 20.8281 73.3125 21.4023 72.7734 22.5508C72.6094 22.9023 72.5273 23.2539 72.5273 23.6055V31.3398C72.5273 32.207 72.9258 32.9453 73.7227 33.5547C74.2852 33.9766 74.9297 34.1875 75.6562 34.1875V37.0352C73.4297 37.0352 71.707 36.1328 70.4883 34.3281C69.9023 33.4375 69.6094 32.5938 69.6094 31.7969ZM77.168 37.0352V34.1875C78.4102 34.1875 79.3008 33.625 79.8398 32.5C80.0273 32.125 80.1211 31.7617 80.1211 31.4102V23.6055C80.1211 22.6445 79.7109 21.8828 78.8906 21.3203C78.375 20.9922 77.7891 20.8281 77.1328 20.8281V17.9805C79.2891 17.9805 80.9531 18.8594 82.125 20.6172C82.7109 21.4844 83.0039 22.3164 83.0039 23.1133V31.7969C83.0039 32.9453 82.5117 34.0586 81.5273 35.1367C80.3789 36.3789 78.9258 37.0117 77.168 37.0352ZM85.6758 31.9375V18.0156H88.6641V31.5859C88.6641 32.4297 89.0859 33.1328 89.9297 33.6953C90.4922 34.0469 91.1133 34.2227 91.793 34.2227V37.1758C89.543 37.1758 87.8086 36.2969 86.5898 34.5391C85.9805 33.6484 85.6758 32.7812 85.6758 31.9375ZM93.3398 37.1758V34.2227C94.6055 34.2227 95.5312 33.7188 96.1172 32.7109C96.3281 32.3359 96.4336 31.9609 96.4336 31.5859V18.0156H99.4219V31.9375C99.4219 33.0391 98.918 34.1289 97.9102 35.207C96.6914 36.4961 95.168 37.1523 93.3398 37.1758ZM101.461 32.0078L104.238 31.4805C104.238 32.5352 104.789 33.3672 105.891 33.9766C106.43 34.2344 106.945 34.375 107.438 34.3984V37.1758C105.164 37.1758 103.465 36.3555 102.34 34.7148C101.754 33.8477 101.461 32.9453 101.461 32.0078ZM101.637 23.3594C101.637 21.2266 102.609 19.6445 104.555 18.6133C105.492 18.1211 106.43 17.875 107.367 17.875V20.6172C106.289 20.6172 105.457 21.0625 104.871 21.9531C104.566 22.3984 104.414 22.8672 104.414 23.3594C104.414 24.1094 105 24.7188 106.172 25.1875C107.062 25.5625 108.785 26.0547 111.34 26.6641C112.934 26.9922 114.07 27.7773 114.75 29.0195C115.102 29.6758 115.277 30.4141 115.277 31.2344C115.277 33.4844 114.375 35.1484 112.57 36.2266C111.516 36.8594 110.309 37.1758 108.949 37.1758V34.3984C110.027 34.3984 110.93 34.0234 111.656 33.2734C112.172 32.7344 112.43 32.1016 112.43 31.375C112.43 30.4375 111.504 29.6875 109.652 29.125C109.184 28.9844 108.434 28.7852 107.402 28.5273C106.301 28.2695 105.504 28.0586 105.012 27.8945C103.23 27.1914 102.152 26.125 101.777 24.6953C101.684 24.2734 101.637 23.8281 101.637 23.3594ZM108.914 20.6523V17.875C110.93 17.875 112.559 18.625 113.801 20.125C114.574 21.0859 114.961 22.0938 114.961 23.1484L112.184 23.6055C112.184 22.3164 111.48 21.4141 110.074 20.8984C109.652 20.7344 109.266 20.6523 108.914 20.6523ZM117.352 31.7969V23.0781C117.375 22 117.891 20.9336 118.898 19.8789C120.117 18.6367 121.594 18.0039 123.328 17.9805V20.7578C122.203 20.7578 121.324 21.25 120.691 22.2344C120.434 22.6562 120.305 23.043 120.305 23.3945V25.7852H128.18V23.3945C128.18 22.3398 127.641 21.5664 126.562 21.0742C126.07 20.8398 125.566 20.7227 125.051 20.7227V17.9805C126.668 17.9805 128.109 18.5547 129.375 19.7031C130.43 20.7109 130.969 21.8242 130.992 23.043V28.6328H120.305V31.7969C120.305 32.4531 120.68 33.0625 121.43 33.625C122.039 34.0469 122.684 34.2578 123.363 34.2578V37C121.23 37 119.555 36.1328 118.336 34.3984C117.68 33.4844 117.352 32.6172 117.352 31.7969ZM125.051 37V34.2227C126.457 34.2227 127.512 33.6133 128.215 32.3945C128.355 32.1367 128.461 31.8906 128.531 31.6562L131.027 32.5703C130.605 34.1875 129.645 35.4062 128.145 36.2266C127.184 36.7422 126.152 37 125.051 37Z" fill="white"/>
<path d="M28.4541 49.54H29.2461L30.4461 52.564L31.6581 49.54H32.4621L30.9741 53.176L32.6061 57.028L35.6901 49.48H36.6021L32.9901 58H32.2461L30.4581 53.788L28.6581 58H27.9261L24.3261 49.48H25.2261L28.3221 57.028L29.9421 53.176L28.4541 49.54ZM40.9283 58.12C40.4803 58.12 40.0643 58.036 39.6803 57.868C39.3043 57.692 38.9763 57.456 38.6963 57.16C38.4243 56.856 38.2123 56.512 38.0603 56.128C37.9083 55.736 37.8323 55.324 37.8323 54.892C37.8323 54.444 37.9083 54.028 38.0603 53.644C38.2123 53.252 38.4283 52.908 38.7083 52.612C38.9883 52.308 39.3163 52.072 39.6923 51.904C40.0763 51.728 40.4923 51.64 40.9403 51.64C41.3883 51.64 41.8003 51.728 42.1763 51.904C42.5523 52.072 42.8803 52.308 43.1603 52.612C43.4403 52.908 43.6563 53.252 43.8083 53.644C43.9603 54.028 44.0363 54.444 44.0363 54.892C44.0363 55.324 43.9603 55.736 43.8083 56.128C43.6563 56.512 43.4403 56.856 43.1603 57.16C42.8883 57.456 42.5603 57.692 42.1763 57.868C41.8003 58.036 41.3843 58.12 40.9283 58.12ZM38.6603 54.904C38.6603 55.368 38.7603 55.792 38.9603 56.176C39.1683 56.552 39.4443 56.852 39.7883 57.076C40.1323 57.292 40.5123 57.4 40.9283 57.4C41.3443 57.4 41.7243 57.288 42.0683 57.064C42.4123 56.84 42.6883 56.536 42.8963 56.152C43.1043 55.76 43.2083 55.336 43.2083 54.88C43.2083 54.416 43.1043 53.992 42.8963 53.608C42.6883 53.224 42.4123 52.92 42.0683 52.696C41.7243 52.472 41.3443 52.36 40.9283 52.36C40.5123 52.36 40.1323 52.476 39.7883 52.708C39.4523 52.94 39.1803 53.248 38.9723 53.632C38.7643 54.008 38.6603 54.432 38.6603 54.904ZM52.097 58H51.281V54.508C51.281 53.804 51.157 53.276 50.909 52.924C50.661 52.564 50.305 52.384 49.841 52.384C49.537 52.384 49.233 52.464 48.929 52.624C48.633 52.776 48.369 52.988 48.137 53.26C47.913 53.524 47.753 53.828 47.657 54.172V58H46.841V49.24H47.657V53.164C47.905 52.7 48.249 52.332 48.689 52.06C49.137 51.78 49.613 51.64 50.117 51.64C50.477 51.64 50.781 51.704 51.029 51.832C51.285 51.96 51.489 52.148 51.641 52.396C51.801 52.636 51.917 52.92 51.989 53.248C52.061 53.568 52.097 53.932 52.097 54.34V58ZM60.5331 58H59.7171V54.508C59.7171 53.772 59.6091 53.236 59.3931 52.9C59.1771 52.556 58.8371 52.384 58.3731 52.384C58.0531 52.384 57.7371 52.464 57.4251 52.624C57.1131 52.776 56.8371 52.988 56.5971 53.26C56.3651 53.524 56.1971 53.828 56.0931 54.172V58H55.2771V51.748H56.0211V53.164C56.1891 52.86 56.4091 52.596 56.6811 52.372C56.9531 52.14 57.2611 51.96 57.6051 51.832C57.9491 51.704 58.3051 51.64 58.6731 51.64C59.0171 51.64 59.3091 51.704 59.5491 51.832C59.7891 51.96 59.9811 52.144 60.1251 52.384C60.2691 52.616 60.3731 52.9 60.4371 53.236C60.5011 53.564 60.5331 53.932 60.5331 54.34V58ZM63.2092 56.2C63.2092 55.808 63.3212 55.472 63.5452 55.192C63.7692 54.904 64.0772 54.684 64.4692 54.532C64.8692 54.372 65.3292 54.292 65.8492 54.292C66.1532 54.292 66.4692 54.316 66.7972 54.364C67.1252 54.412 67.4172 54.484 67.6732 54.58V54.052C67.6732 53.524 67.5172 53.104 67.2052 52.792C66.8932 52.48 66.4612 52.324 65.9092 52.324C65.5732 52.324 65.2412 52.388 64.9132 52.516C64.5932 52.636 64.2572 52.816 63.9052 53.056L63.5932 52.48C64.0012 52.2 64.4012 51.992 64.7932 51.856C65.1852 51.712 65.5852 51.64 65.9932 51.64C66.7612 51.64 67.3692 51.86 67.8172 52.3C68.2652 52.74 68.4892 53.348 68.4892 54.124V57.016C68.4892 57.128 68.5132 57.212 68.5612 57.268C68.6092 57.316 68.6852 57.344 68.7892 57.352V58C68.7012 58.008 68.6252 58.016 68.5612 58.024C68.4972 58.032 68.4492 58.032 68.4172 58.024C68.2172 58.016 68.0652 57.952 67.9612 57.832C67.8572 57.712 67.8012 57.584 67.7932 57.448L67.7812 56.992C67.5012 57.352 67.1372 57.632 66.6892 57.832C66.2412 58.024 65.7852 58.12 65.3212 58.12C64.9212 58.12 64.5572 58.036 64.2292 57.868C63.9092 57.692 63.6572 57.46 63.4732 57.172C63.2972 56.876 63.2092 56.552 63.2092 56.2ZM67.3972 56.68C67.4852 56.568 67.5532 56.46 67.6012 56.356C67.6492 56.252 67.6732 56.16 67.6732 56.08V55.168C67.4012 55.064 67.1172 54.984 66.8212 54.928C66.5332 54.872 66.2412 54.844 65.9452 54.844C65.3612 54.844 64.8892 54.96 64.5292 55.192C64.1692 55.424 63.9892 55.74 63.9892 56.14C63.9892 56.372 64.0492 56.592 64.1692 56.8C64.2892 57 64.4652 57.168 64.6972 57.304C64.9292 57.432 65.2012 57.496 65.5132 57.496C65.9052 57.496 66.2692 57.42 66.6052 57.268C66.9492 57.116 67.2132 56.92 67.3972 56.68ZM76.9483 58H76.1323V54.508C76.1323 53.772 76.0243 53.236 75.8083 52.9C75.5923 52.556 75.2523 52.384 74.7883 52.384C74.4683 52.384 74.1523 52.464 73.8403 52.624C73.5283 52.776 73.2523 52.988 73.0123 53.26C72.7803 53.524 72.6123 53.828 72.5083 54.172V58H71.6923V51.748H72.4363V53.164C72.6043 52.86 72.8243 52.596 73.0963 52.372C73.3683 52.14 73.6763 51.96 74.0203 51.832C74.3643 51.704 74.7203 51.64 75.0883 51.64C75.4323 51.64 75.7243 51.704 75.9643 51.832C76.2043 51.96 76.3963 52.144 76.5403 52.384C76.6843 52.616 76.7883 52.9 76.8523 53.236C76.9163 53.564 76.9483 53.932 76.9483 54.34V58ZM80.1644 49.24H80.9804V56.584C80.9804 56.896 81.0364 57.1 81.1484 57.196C81.2604 57.292 81.3964 57.34 81.5564 57.34C81.7004 57.34 81.8444 57.324 81.9884 57.292C82.1324 57.26 82.2564 57.228 82.3604 57.196L82.5044 57.856C82.3524 57.92 82.1644 57.972 81.9404 58.012C81.7244 58.052 81.5364 58.072 81.3764 58.072C81.0084 58.072 80.7124 57.964 80.4884 57.748C80.2724 57.532 80.1644 57.236 80.1644 56.86V49.24ZM84.3339 56.2C84.3339 55.808 84.4459 55.472 84.6699 55.192C84.8939 54.904 85.2019 54.684 85.5939 54.532C85.9939 54.372 86.4539 54.292 86.9739 54.292C87.2779 54.292 87.5939 54.316 87.9219 54.364C88.2499 54.412 88.5419 54.484 88.7979 54.58V54.052C88.7979 53.524 88.6419 53.104 88.3299 52.792C88.0179 52.48 87.5859 52.324 87.0339 52.324C86.6979 52.324 86.3659 52.388 86.0379 52.516C85.7179 52.636 85.3819 52.816 85.0299 53.056L84.7179 52.48C85.1259 52.2 85.5259 51.992 85.9179 51.856C86.3099 51.712 86.7099 51.64 87.1179 51.64C87.8859 51.64 88.4939 51.86 88.9419 52.3C89.3899 52.74 89.6139 53.348 89.6139 54.124V57.016C89.6139 57.128 89.6379 57.212 89.6859 57.268C89.7339 57.316 89.8099 57.344 89.9139 57.352V58C89.8259 58.008 89.7499 58.016 89.6859 58.024C89.6219 58.032 89.5739 58.032 89.5419 58.024C89.3419 58.016 89.1899 57.952 89.0859 57.832C88.9819 57.712 88.9259 57.584 88.9179 57.448L88.9059 56.992C88.6259 57.352 88.2619 57.632 87.8139 57.832C87.3659 58.024 86.9099 58.12 86.4459 58.12C86.0459 58.12 85.6819 58.036 85.3539 57.868C85.0339 57.692 84.7819 57.46 84.5979 57.172C84.4219 56.876 84.3339 56.552 84.3339 56.2ZM88.5219 56.68C88.6099 56.568 88.6779 56.46 88.7259 56.356C88.7739 56.252 88.7979 56.16 88.7979 56.08V55.168C88.5259 55.064 88.2419 54.984 87.9459 54.928C87.6579 54.872 87.3659 54.844 87.0699 54.844C86.4859 54.844 86.0139 54.96 85.6539 55.192C85.2939 55.424 85.1139 55.74 85.1139 56.14C85.1139 56.372 85.1739 56.592 85.2939 56.8C85.4139 57 85.5899 57.168 85.8219 57.304C86.0539 57.432 86.3259 57.496 86.6379 57.496C87.0299 57.496 87.3939 57.42 87.7299 57.268C88.0739 57.116 88.3379 56.92 88.5219 56.68ZM95.325 58.084C94.901 58.084 94.509 57.996 94.149 57.82C93.789 57.644 93.477 57.408 93.213 57.112C92.957 56.808 92.757 56.464 92.613 56.08C92.469 55.696 92.397 55.3 92.397 54.892C92.397 54.452 92.465 54.04 92.601 53.656C92.745 53.264 92.945 52.916 93.201 52.612C93.465 52.308 93.773 52.072 94.125 51.904C94.477 51.728 94.869 51.64 95.301 51.64C95.837 51.64 96.301 51.776 96.693 52.048C97.093 52.32 97.429 52.656 97.701 53.056V51.748H98.433V58.024C98.433 58.6 98.293 59.084 98.013 59.476C97.741 59.876 97.369 60.176 96.897 60.376C96.433 60.576 95.925 60.676 95.373 60.676C94.661 60.676 94.085 60.548 93.645 60.292C93.205 60.036 92.845 59.692 92.565 59.26L93.069 58.864C93.317 59.256 93.645 59.548 94.053 59.74C94.469 59.932 94.909 60.028 95.373 60.028C95.781 60.028 96.153 59.952 96.489 59.8C96.833 59.656 97.105 59.436 97.305 59.14C97.513 58.844 97.617 58.472 97.617 58.024V56.788C97.377 57.18 97.049 57.496 96.633 57.736C96.217 57.968 95.781 58.084 95.325 58.084ZM95.553 57.4C95.801 57.4 96.037 57.356 96.261 57.268C96.493 57.18 96.705 57.064 96.897 56.92C97.089 56.768 97.249 56.6 97.377 56.416C97.505 56.232 97.585 56.044 97.617 55.852V53.92C97.497 53.616 97.325 53.348 97.101 53.116C96.877 52.876 96.621 52.692 96.333 52.564C96.053 52.428 95.761 52.36 95.457 52.36C95.105 52.36 94.789 52.436 94.509 52.588C94.237 52.732 94.005 52.928 93.813 53.176C93.629 53.416 93.485 53.688 93.381 53.992C93.277 54.296 93.225 54.6 93.225 54.904C93.225 55.24 93.285 55.56 93.405 55.864C93.525 56.16 93.689 56.428 93.897 56.668C94.113 56.9 94.361 57.08 94.641 57.208C94.929 57.336 95.233 57.4 95.553 57.4ZM104.375 58.12C103.927 58.12 103.511 58.036 103.127 57.868C102.743 57.692 102.411 57.456 102.131 57.16C101.851 56.856 101.631 56.508 101.471 56.116C101.319 55.724 101.243 55.304 101.243 54.856C101.243 54.272 101.375 53.736 101.639 53.248C101.911 52.76 102.283 52.372 102.755 52.084C103.227 51.788 103.763 51.64 104.363 51.64C104.979 51.64 105.515 51.788 105.971 52.084C106.435 52.38 106.799 52.772 107.063 53.26C107.327 53.74 107.459 54.268 107.459 54.844C107.459 54.908 107.459 54.972 107.459 55.036C107.459 55.092 107.455 55.136 107.447 55.168H102.095C102.135 55.616 102.259 56.016 102.467 56.368C102.683 56.712 102.959 56.988 103.295 57.196C103.639 57.396 104.011 57.496 104.411 57.496C104.819 57.496 105.203 57.392 105.563 57.184C105.931 56.976 106.187 56.704 106.331 56.368L107.039 56.56C106.911 56.856 106.715 57.124 106.451 57.364C106.187 57.604 105.875 57.792 105.515 57.928C105.163 58.056 104.783 58.12 104.375 58.12ZM102.071 54.58H106.691C106.659 54.124 106.535 53.724 106.319 53.38C106.111 53.036 105.835 52.768 105.491 52.576C105.155 52.376 104.783 52.276 104.375 52.276C103.967 52.276 103.595 52.376 103.259 52.576C102.923 52.768 102.647 53.04 102.431 53.392C102.223 53.736 102.103 54.132 102.071 54.58Z" fill="white"/>
</svg>
